<svg xmlns="http://www.w3.org/2000/svg" width="91" height="91" id="japanese-food"><path d="M77.463 1.33a2.199 2.199 0 0 0-3.005.774L58.742 28.728a2.169 2.169 0 0 0-.194.437 17.37 17.37 0 0 0-4.86 2.761c-4.762-8.09-13.487-13.184-23.019-13.184-14.708 0-26.672 11.947-26.713 26.645H.489l.31 2.469C2.603 62.206 11.453 74.74 24.178 81.34v8.473h32.834c4.162 0 7.548-3.389 7.548-7.552v-.92c12.729-6.603 21.575-19.137 23.383-33.485l.31-2.471h-6.261c-.029-7.502-4.84-13.88-11.532-16.288l19.608-18.869c.872-.839.9-2.229.058-3.101a2.192 2.192 0 0 0-3.1-.061L65.184 28.088c-.196-.008-.391-.03-.59-.03-.126 0-.247.018-.371.02L78.237 4.335a2.194 2.194 0 0 0-.774-3.005zM30.668 23.131c8.397 0 16.051 4.727 19.858 12.133a17.357 17.357 0 0 0-2.892 6.383c-1.745-7.768-8.683-13.591-16.966-13.591-9.567 0-17.35 7.768-17.391 17.33H8.345c.04-12.277 10.036-22.255 22.323-22.255zm0 14.251c-4.43 0-8.035 3.585-8.076 8.004h-4.925c.041-7.142 5.854-12.94 13.001-12.94 7.149 0 12.968 5.798 13.005 12.94h-4.931c-.039-4.419-3.644-8.004-8.074-8.004zm3.682 8.005h-7.364a3.691 3.691 0 0 1 3.684-3.616 3.688 3.688 0 0 1 3.68 3.616zm48.846 4.389C80.757 62.53 72.108 73.403 60.121 78.611h-7.025v4.39h6.978a3.155 3.155 0 0 1-3.061 2.423H28.568v-2.423h8.229v-4.39h-8.176C16.634 73.406 7.984 62.53 5.543 49.776h77.653zm-22.283-4.389a3.69 3.69 0 0 1 3.681-3.616 3.69 3.69 0 0 1 3.686 3.616h-7.367zm3.681-12.94c7.152 0 12.973 5.798 13.011 12.94h-4.934c-.04-4.419-3.646-8.004-8.077-8.004-4.43 0-8.032 3.585-8.072 8.004h-4.929c.04-7.142 5.853-12.94 13.001-12.94z"></path><path d="M63.658 71.003c.351 0 .706-.083 1.033-.26A21.893 21.893 0 0 0 75.576 56.84a2.194 2.194 0 1 0-4.254-1.076 17.492 17.492 0 0 1-8.697 11.112 2.192 2.192 0 0 0 1.033 4.127z"></path><circle cx="58.347" cy="71.863" r="2.602"></circle></svg>